<svg width="18" height="20" viewBox="0 0 18 20" fill="none" xmlns="http://www.w3.org/2000/svg">
<g clip-path="url(#clip0_54_3485)">
<path fillRule="evenodd" clipRule="evenodd" d="M4.78125 5.82384C4.78125 5.32961 5.15901 4.92896 5.625 4.92896H15.75C16.216 4.92896 16.5938 5.32961 16.5938 5.82384C16.5938 6.31807 16.216 6.71873 15.75 6.71873H5.625C5.15901 6.71873 4.78125 6.31807 4.78125 5.82384Z" fill="white"/>
<path fillRule="evenodd" clipRule="evenodd" d="M4.78125 10.0001C4.78125 9.50588 5.15901 9.10522 5.625 9.10522H15.75C16.216 9.10522 16.5938 9.50588 16.5938 10.0001C16.5938 10.4943 16.216 10.895 15.75 10.895H5.625C5.15901 10.895 4.78125 10.4943 4.78125 10.0001Z" fill="white"/>
<path fillRule="evenodd" clipRule="evenodd" d="M4.78125 14.1761C4.78125 13.6819 5.15901 13.2812 5.625 13.2812H15.75C16.216 13.2812 16.5938 13.6819 16.5938 14.1761C16.5938 14.6704 16.216 15.071 15.75 15.071H5.625C5.15901 15.071 4.78125 14.6704 4.78125 14.1761Z" fill="white"/>
<path fillRule="evenodd" clipRule="evenodd" d="M1.6875 5.8238C1.6875 5.16482 2.19118 4.63062 2.8125 4.63062C3.43382 4.63062 3.9375 5.16482 3.9375 5.8238C3.9375 6.48277 3.43382 7.01698 2.8125 7.01698C2.19118 7.01698 1.6875 6.48277 1.6875 5.8238Z" fill="white"/>
<path fillRule="evenodd" clipRule="evenodd" d="M1.6875 10.0001C1.6875 9.34109 2.19118 8.80688 2.8125 8.80688C3.43382 8.80688 3.9375 9.34109 3.9375 10.0001C3.9375 10.659 3.43382 11.1932 2.8125 11.1932C2.19118 11.1932 1.6875 10.659 1.6875 10.0001Z" fill="white"/>
<path fillRule="evenodd" clipRule="evenodd" d="M1.6875 14.1761C1.6875 13.5171 2.19118 12.9829 2.8125 12.9829C3.43382 12.9829 3.9375 13.5171 3.9375 14.1761C3.9375 14.8351 3.43382 15.3693 2.8125 15.3693C2.19118 15.3693 1.6875 14.8351 1.6875 14.1761Z" fill="white"/>
</g>
<defs>
<clipPath id="clip0_54_3485">
<rect width="18" height="20" fill="white"/>
</clipPath>
</defs>
</svg>
