<svg width="16" height="16" viewBox="0 0 16 16" fill="none" xmlns="http://www.w3.org/2000/svg">
<path fillRule="evenodd" clipRule="evenodd" d="M12.5542 1.06972C12.8374 1.18954 13.125 1.49219 13.125 1.93749V12.075C13.125 12.5444 12.8038 12.8309 12.5307 12.9369C12.2825 13.0333 11.8493 13.0582 11.583 12.6914L11.5822 12.6904L11.5802 12.6878C11.5761 12.6824 11.5696 12.6739 11.5608 12.6625C11.5432 12.6398 11.5165 12.6056 11.4812 12.5616C11.4107 12.4736 11.3064 12.3465 11.1736 12.1934C10.9073 11.8865 10.5291 11.4785 10.0809 11.072C9.15842 10.2354 8.04146 9.49999 7.03125 9.49999H2.34375C2.09511 9.49999 1.85665 9.39463 1.68084 9.2071C1.50502 9.01956 1.40625 8.7652 1.40625 8.49999V5.49999C1.40625 5.23477 1.50502 4.98042 1.68084 4.79288C1.85665 4.60535 2.09511 4.49999 2.34375 4.49999H7.03125C8.04215 4.49999 9.15937 3.76727 10.0816 2.93434C10.5298 2.52951 10.9079 2.12325 11.1742 1.81771C11.3071 1.66527 11.4114 1.53872 11.4819 1.45106C11.5171 1.40725 11.5438 1.37322 11.5614 1.35058C11.5702 1.33927 11.5767 1.33081 11.5808 1.32541C11.5826 1.3231 11.5839 1.32135 11.5848 1.32018C11.8553 0.954892 12.2772 0.952498 12.5542 1.06972ZM11.9514 12.3822L12.3172 12.0698C12.3171 12.0698 12.3171 12.0697 12.317 12.0696C12.3167 12.07 12.3154 12.0711 12.3109 12.075C12.2928 12.0906 12.2226 12.1506 11.9514 12.3822ZM12.1875 11.9039V2.1095C12.1101 2.20556 11.9996 2.33936 11.8609 2.49856C11.5768 2.82454 11.1715 3.26031 10.6874 3.69751C9.74502 4.54864 8.40218 5.49999 7.03125 5.49999L2.34375 5.49999L2.34375 8.49999H7.03125C8.40288 8.49999 9.74597 9.45567 10.6881 10.3102C11.1722 10.7492 11.5775 11.1867 11.8615 11.514C11.9999 11.6735 12.1102 11.8075 12.1875 11.9039ZM12.3165 1.94524C12.3165 1.94518 12.3166 1.94512 12.3166 1.94505L11.9514 1.63186C12.2102 1.85381 12.2856 1.91856 12.3076 1.93749C12.3146 1.94359 12.3162 1.94493 12.3165 1.94524Z" fill="white"/>
<path fillRule="evenodd" clipRule="evenodd" d="M2.0599 6.45936C2.28878 6.35479 2.40223 6.07556 2.3139 5.82433C2.223 5.56577 1.95281 5.43477 1.71041 5.53173L1.875 5.99989C1.71041 5.53173 1.7101 5.53185 1.70979 5.53197L1.70917 5.53223L1.70787 5.53275L1.70514 5.53387C1.70326 5.53465 1.70125 5.5355 1.69911 5.53641C1.69485 5.53823 1.69009 5.54033 1.68487 5.54272C1.67444 5.5475 1.66213 5.55345 1.64824 5.56073C1.62049 5.57527 1.5861 5.59524 1.54745 5.62186C1.47014 5.67512 1.37477 5.75572 1.28207 5.87314C1.09019 6.11619 0.9375 6.48177 0.9375 6.99989C0.9375 7.51802 1.09019 7.88359 1.28207 8.12665C1.37477 8.24407 1.47014 8.32466 1.54745 8.37792C1.5861 8.40455 1.62049 8.42452 1.64824 8.43905C1.66213 8.44633 1.67444 8.45229 1.68487 8.45706C1.69009 8.45945 1.69485 8.46155 1.69911 8.46337C1.70125 8.46429 1.70326 8.46513 1.70514 8.46591L1.70787 8.46703L1.70917 8.46756L1.70979 8.46781C1.7101 8.46793 1.71041 8.46806 1.875 7.99989L1.71041 8.46806C1.95281 8.56502 2.223 8.43401 2.3139 8.17545C2.40223 7.92422 2.28878 7.64499 2.0599 7.54042C2.05891 7.53979 2.05762 7.53895 2.05607 7.53788C2.04549 7.53059 2.02367 7.51353 1.99918 7.48251C1.95669 7.42869 1.875 7.29427 1.875 6.99989C1.875 6.70552 1.95669 6.57109 1.99918 6.51727C2.02367 6.48625 2.04549 6.46919 2.05607 6.4619C2.05762 6.46083 2.05891 6.45999 2.0599 6.45936ZM2.04081 7.53222L2.04079 7.53221L2.04075 7.53219C2.04077 7.5322 2.04079 7.53221 2.04081 7.53222Z" fill="white"/>
<path fillRule="evenodd" clipRule="evenodd" d="M12.6725 6.18177C12.7401 5.91521 12.9976 5.75761 13.2474 5.82974L13.125 6.31238C13.2474 5.82974 13.2477 5.82981 13.2479 5.82988L13.2484 5.83001L13.2494 5.8303L13.2515 5.83092C13.2529 5.83136 13.2545 5.83184 13.2562 5.83237C13.2597 5.83343 13.2636 5.83467 13.268 5.83611C13.2768 5.83899 13.2875 5.84268 13.2998 5.84727C13.3243 5.85642 13.3559 5.86938 13.3923 5.88699C13.4639 5.92173 13.5598 5.97744 13.6572 6.06296C13.8618 6.24253 14.0625 6.54776 14.0625 6.99988C14.0625 7.452 13.8618 7.75723 13.6572 7.9368C13.5598 8.02232 13.4639 8.07803 13.3923 8.11277C13.3559 8.13038 13.3243 8.14334 13.2998 8.15249C13.2875 8.15708 13.2768 8.16077 13.268 8.16365C13.2636 8.16509 13.2597 8.16633 13.2562 8.16739C13.2545 8.16792 13.2529 8.1684 13.2515 8.16884L13.2494 8.16946L13.2484 8.16975L13.2479 8.16989C13.2477 8.16995 13.2474 8.17002 13.125 7.68738L13.2474 8.17002C12.9976 8.24216 12.7401 8.08455 12.6725 7.81799C12.6059 7.55534 12.7484 7.2849 12.9917 7.20803C12.9938 7.2072 12.9982 7.20538 13.0042 7.20245C13.0205 7.19457 13.0418 7.18193 13.0615 7.1646C13.0913 7.13847 13.125 7.09995 13.125 6.99988C13.125 6.89981 13.0913 6.86129 13.0615 6.83516C13.0418 6.81783 13.0205 6.8052 13.0042 6.79731C12.9982 6.79438 12.9938 6.79256 12.9917 6.79173C12.7484 6.71486 12.6059 6.44443 12.6725 6.18177Z" fill="white"/>
<path fillRule="evenodd" clipRule="evenodd" d="M7.5 4.5C7.75888 4.5 7.96875 4.72386 7.96875 5V9C7.96875 9.27614 7.75888 9.5 7.5 9.5C7.24112 9.5 7.03125 9.27614 7.03125 9V5C7.03125 4.72386 7.24112 4.5 7.5 4.5Z" fill="white"/>
<path fillRule="evenodd" clipRule="evenodd" d="M3.28125 4.5C3.54013 4.5 3.75 4.72386 3.75 5V9C3.75 9.27614 3.54013 9.5 3.28125 9.5C3.02237 9.5 2.8125 9.27614 2.8125 9V5C2.8125 4.72386 3.02237 4.5 3.28125 4.5Z" fill="white"/>
<path fillRule="evenodd" clipRule="evenodd" d="M4.21875 8.5C4.47763 8.5 4.6875 8.72386 4.6875 9V14H6.00586L6.00601 14C5.95672 13.8316 5.88159 13.6372 5.79599 13.4158C5.52757 12.7215 5.15625 11.7609 5.15625 10.5C5.15625 10.2239 5.36612 10 5.625 10H6.09375V9.5H5.625C5.36612 9.5 5.15625 9.27614 5.15625 9C5.15625 8.72386 5.36612 8.5 5.625 8.5H6.09375C6.34239 8.5 6.58085 8.60536 6.75666 8.79289C6.93248 8.98043 7.03125 9.23478 7.03125 9.5V10C7.03125 10.2652 6.93248 10.5196 6.75666 10.7071C6.58586 10.8893 6.35595 10.9939 6.11501 10.9997C6.18261 11.7742 6.4007 12.3387 6.6132 12.8887C6.71655 13.1562 6.81857 13.4202 6.90132 13.7034L6.90161 13.7044C6.94502 13.854 6.95487 14.0125 6.93036 14.1669C6.90585 14.3214 6.84766 14.4675 6.76048 14.5936C6.67331 14.7196 6.55959 14.8221 6.42849 14.8927C6.29743 14.9633 6.15267 15 6.00586 15C6.00581 15 6.00576 15 6.00571 15H4.45312C4.26665 15 4.0878 14.921 3.95594 14.7803C3.82408 14.6397 3.75 14.4489 3.75 14.25V9C3.75 8.72386 3.95987 8.5 4.21875 8.5Z" fill="white"/>
</svg>
