<svg width="19" height="20" viewBox="0 0 19 20" fill="none" xmlns="http://www.w3.org/2000/svg">
<g clip-path="url(#clip0_54_3480)">
<g clip-path="url(#clip1_54_3480)">
<path d="M8.90625 4.39648C9.98223 4.39648 10.8545 3.52423 10.8545 2.44824C10.8545 1.37226 9.98223 0.5 8.90625 0.5C7.83027 0.5 6.95801 1.37226 6.95801 2.44824C6.95801 3.52423 7.83027 4.39648 8.90625 4.39648Z" fill="white"/>
<path d="M15.2032 4.95319H2.60925C2.36013 4.95319 2.1212 5.05216 1.94505 5.22832C1.76889 5.40447 1.66992 5.6434 1.66992 5.89252C1.66992 6.14165 1.76889 6.38057 1.94505 6.55673C2.1212 6.73289 2.36013 6.83185 2.60925 6.83185H6.15366C6.39406 6.83185 6.67551 6.93936 6.83485 7.3537C7.02098 7.83485 6.92983 8.76409 6.81502 9.4839L6.66473 10.3345C6.66501 10.3367 6.66478 10.339 6.66405 10.3411C6.66333 10.3432 6.66213 10.3451 6.66055 10.3467L5.45682 17.1937C5.41316 17.4423 5.46973 17.698 5.61415 17.9049C5.75856 18.1119 5.97907 18.2532 6.22742 18.298C6.3502 18.3197 6.47607 18.3168 6.59773 18.2895C6.71938 18.2621 6.8344 18.2109 6.93609 18.1388C7.03779 18.0666 7.12414 17.975 7.19013 17.8692C7.25613 17.7634 7.30045 17.6455 7.32052 17.5225L8.15235 12.7632C8.15235 12.7632 8.41919 11.6329 8.90625 11.6329C9.40131 11.6329 9.66259 12.7632 9.66259 12.7632L10.4944 17.5267C10.5145 17.6508 10.5592 17.7697 10.6257 17.8764C10.6922 17.9831 10.7794 18.0756 10.882 18.1483C10.9846 18.221 11.1006 18.2725 11.2234 18.2999C11.3461 18.3274 11.4731 18.3301 11.5969 18.3079C11.7207 18.2857 11.8388 18.2391 11.9445 18.1709C12.0501 18.1026 12.141 18.0139 12.212 17.9101C12.2831 17.8063 12.3327 17.6894 12.3581 17.5663C12.3835 17.4431 12.3841 17.3161 12.3599 17.1927L11.1558 10.3456C11.156 10.3435 11.1558 10.3413 11.1552 10.3392C11.1545 10.3371 11.1534 10.3351 11.1519 10.3335L11.0013 9.48286C10.8865 8.76305 10.7953 7.83381 10.9815 7.35266C11.1401 6.93936 11.4306 6.83081 11.6522 6.83081H15.2032C15.4524 6.83081 15.6913 6.73185 15.8675 6.55569C16.0436 6.37953 16.1426 6.14061 16.1426 5.89148C16.1426 5.64235 16.0436 5.40343 15.8675 5.22727C15.6913 5.05111 15.4524 4.95215 15.2032 4.95215V4.95319Z" fill="white"/>
</g>
</g>
<defs>
<clipPath id="clip0_54_3480">
<rect width="19" height="19" fill="white" transform="translate(0 0.5)"/>
</clipPath>
<clipPath id="clip1_54_3480">
<rect width="17.8125" height="17.8125" fill="white" transform="translate(0 0.5)"/>
</clipPath>
</defs>
</svg>
