<svg width="16" height="16" viewBox="0 0 16 16" fill="none" xmlns="http://www.w3.org/2000/svg">
<g clip-path="url(#clip0_54_3495)">
<path fillRule="evenodd" clipRule="evenodd" d="M5.5 12.5C5.77614 12.5 6 12.7239 6 13V15C6 15.2761 5.77614 15.5 5.5 15.5C5.22386 15.5 5 15.2761 5 15V13C5 12.7239 5.22386 12.5 5.5 12.5Z" fill="white"/>
<path fillRule="evenodd" clipRule="evenodd" d="M2.5 1.5C2.36739 1.5 2.24021 1.55268 2.14645 1.64645C2.05268 1.74021 2 1.86739 2 2V14.5H9V2C9 1.86739 8.94732 1.74021 8.85355 1.64645C8.75979 1.55268 8.63261 1.5 8.5 1.5H2.5ZM2.5 0.5H8.5C8.89782 0.5 9.27936 0.658035 9.56066 0.93934C9.84196 1.22064 10 1.60217 10 2V14.875C10 15.0408 9.93415 15.1997 9.81694 15.3169C9.69973 15.4342 9.54076 15.5 9.375 15.5H1.5C1.22386 15.5 1 15.2761 1 15V2C1 1.60218 1.15804 1.22064 1.43934 0.93934C1.72064 0.658035 2.10218 0.5 2.5 0.5Z" fill="white"/>
<path fillRule="evenodd" clipRule="evenodd" d="M9.29289 5.79289C9.48043 5.60536 9.73478 5.5 10 5.5H13.5C13.8978 5.5 14.2794 5.65804 14.5607 5.93934C14.842 6.22064 15 6.60217 15 7V15C15 15.2761 14.7761 15.5 14.5 15.5H9.5C9.22386 15.5 9 15.2761 9 15V6.5C9 6.23478 9.10536 5.98043 9.29289 5.79289ZM13.5 6.5L10 6.5L10 14.5H14V7C14 6.86739 13.9473 6.74022 13.8536 6.64645C13.7598 6.55268 13.6326 6.5 13.5 6.5Z" fill="white"/>
<path d="M3.06496 13.496C2.96141 13.5096 2.85621 13.4903 2.76414 13.4411C2.67207 13.3918 2.59774 13.3149 2.55159 13.2212C2.50544 13.1275 2.48978 13.0217 2.50682 12.9187C2.52385 12.8157 2.57272 12.7205 2.64657 12.6467C2.72042 12.5728 2.81553 12.524 2.91857 12.5069C3.02161 12.4899 3.12739 12.5056 3.22108 12.5517C3.31476 12.5979 3.39164 12.6722 3.44093 12.7643C3.49022 12.8563 3.50944 12.9615 3.4959 13.0651C3.48161 13.1744 3.43161 13.2759 3.35368 13.3538C3.27574 13.4317 3.17425 13.4817 3.06496 13.496Z" fill="white"/>
<path d="M3.06496 10.996C2.96141 11.0096 2.85621 10.9903 2.76414 10.9411C2.67207 10.8918 2.59774 10.8149 2.55159 10.7212C2.50544 10.6275 2.48978 10.5217 2.50682 10.4187C2.52385 10.3157 2.57272 10.2205 2.64657 10.1467C2.72042 10.0728 2.81553 10.024 2.91857 10.0069C3.02161 9.98991 3.12739 10.0056 3.22108 10.0517C3.31476 10.0979 3.39164 10.1722 3.44093 10.2643C3.49022 10.3563 3.50944 10.4615 3.4959 10.5651C3.48161 10.6744 3.43161 10.7759 3.35368 10.8538C3.27574 10.9317 3.17425 10.9817 3.06496 10.996Z" fill="white"/>
<path d="M3.06496 8.49602C2.96141 8.50957 2.85621 8.49034 2.76414 8.44105C2.67207 8.39176 2.59774 8.31488 2.55159 8.2212C2.50544 8.12751 2.48978 8.02173 2.50682 7.91869C2.52385 7.81565 2.57272 7.72054 2.64657 7.64669C2.72042 7.57284 2.81553 7.52397 2.91857 7.50694C3.02161 7.48991 3.12739 7.50556 3.22108 7.55171C3.31476 7.59786 3.39164 7.67219 3.44093 7.76426C3.49022 7.85634 3.50944 7.96153 3.4959 8.06508C3.48161 8.17437 3.43161 8.27587 3.35368 8.3538C3.27574 8.43173 3.17425 8.48173 3.06496 8.49602Z" fill="white"/>
<path d="M3.06496 5.99602C2.96141 6.00957 2.85621 5.99034 2.76414 5.94105C2.67207 5.89176 2.59774 5.81488 2.55159 5.7212C2.50544 5.62751 2.48978 5.52173 2.50682 5.41869C2.52385 5.31565 2.57272 5.22054 2.64657 5.14669C2.72042 5.07284 2.81553 5.02397 2.91857 5.00694C3.02161 4.98991 3.12739 5.00556 3.22108 5.05171C3.31476 5.09786 3.39164 5.17219 3.44093 5.26426C3.49022 5.35634 3.50944 5.46153 3.4959 5.56508C3.48161 5.67437 3.43161 5.77587 3.35368 5.8538C3.27574 5.93173 3.17425 5.98173 3.06496 5.99602Z" fill="white"/>
<path d="M3.06496 3.49602C2.96141 3.50957 2.85621 3.49034 2.76414 3.44105C2.67207 3.39177 2.59774 3.31488 2.55159 3.2212C2.50544 3.12751 2.48978 3.02173 2.50682 2.91869C2.52385 2.81566 2.57272 2.72054 2.64657 2.64669C2.72042 2.57284 2.81553 2.52397 2.91857 2.50694C3.02161 2.48991 3.12739 2.50556 3.22108 2.55171C3.31476 2.59786 3.39164 2.67219 3.44093 2.76426C3.49022 2.85634 3.50944 2.96153 3.4959 3.06509C3.48161 3.17437 3.43161 3.27587 3.35368 3.3538C3.27574 3.43173 3.17425 3.48173 3.06496 3.49602Z" fill="white"/>
<path d="M5.56496 10.996C5.46141 11.0096 5.35621 10.9903 5.26414 10.9411C5.17207 10.8918 5.09774 10.8149 5.05159 10.7212C5.00544 10.6275 4.98978 10.5217 5.00682 10.4187C5.02385 10.3157 5.07272 10.2205 5.14657 10.1467C5.22042 10.0728 5.31553 10.024 5.41857 10.0069C5.52161 9.98991 5.62739 10.0056 5.72108 10.0517C5.81476 10.0979 5.89164 10.1722 5.94093 10.2643C5.99022 10.3563 6.00944 10.4615 5.9959 10.5651C5.98161 10.6744 5.93161 10.7759 5.85368 10.8538C5.77574 10.9317 5.67425 10.9817 5.56496 10.996Z" fill="white"/>
<path d="M5.56496 8.49602C5.46141 8.50957 5.35621 8.49034 5.26414 8.44105C5.17207 8.39176 5.09774 8.31488 5.05159 8.2212C5.00544 8.12751 4.98978 8.02173 5.00682 7.91869C5.02385 7.81565 5.07272 7.72054 5.14657 7.64669C5.22042 7.57284 5.31553 7.52397 5.41857 7.50694C5.52161 7.48991 5.62739 7.50556 5.72108 7.55171C5.81476 7.59786 5.89164 7.67219 5.94093 7.76426C5.99022 7.85634 6.00944 7.96153 5.9959 8.06508C5.98161 8.17437 5.93161 8.27587 5.85368 8.3538C5.77574 8.43173 5.67425 8.48173 5.56496 8.49602Z" fill="white"/>
<path d="M5.56496 5.99602C5.46141 6.00957 5.35621 5.99034 5.26414 5.94105C5.17207 5.89176 5.09774 5.81488 5.05159 5.7212C5.00544 5.62751 4.98978 5.52173 5.00682 5.41869C5.02385 5.31565 5.07272 5.22054 5.14657 5.14669C5.22042 5.07284 5.31553 5.02397 5.41857 5.00694C5.52161 4.98991 5.62739 5.00556 5.72108 5.05171C5.81476 5.09786 5.89164 5.17219 5.94093 5.26426C5.99022 5.35634 6.00944 5.46153 5.9959 5.56508C5.98161 5.67437 5.93161 5.77587 5.85368 5.8538C5.77574 5.93173 5.67425 5.98173 5.56496 5.99602Z" fill="white"/>
<path d="M5.56496 3.49602C5.46141 3.50957 5.35621 3.49034 5.26414 3.44105C5.17207 3.39177 5.09774 3.31488 5.05159 3.2212C5.00544 3.12751 4.98978 3.02173 5.00682 2.91869C5.02385 2.81566 5.07272 2.72054 5.14657 2.64669C5.22042 2.57284 5.31553 2.52397 5.41857 2.50694C5.52161 2.48991 5.62739 2.50556 5.72108 2.55171C5.81476 2.59786 5.89164 2.67219 5.94093 2.76426C5.99022 2.85634 6.00944 2.96153 5.9959 3.06509C5.98161 3.17437 5.93161 3.27587 5.85368 3.3538C5.77574 3.43173 5.67425 3.48173 5.56496 3.49602Z" fill="white"/>
<path d="M8.06496 13.496C7.96141 13.5096 7.85621 13.4903 7.76414 13.4411C7.67207 13.3918 7.59774 13.3149 7.55159 13.2212C7.50544 13.1275 7.48978 13.0217 7.50682 12.9187C7.52385 12.8157 7.57272 12.7205 7.64657 12.6467C7.72042 12.5728 7.81553 12.524 7.91857 12.5069C8.02161 12.4899 8.12739 12.5056 8.22108 12.5517C8.31476 12.5979 8.39164 12.6722 8.44093 12.7643C8.49022 12.8563 8.50944 12.9615 8.4959 13.0651C8.48161 13.1744 8.43161 13.2759 8.35368 13.3538C8.27574 13.4317 8.17424 13.4817 8.06496 13.496Z" fill="white"/>
<path d="M8.06496 10.996C7.96141 11.0096 7.85621 10.9903 7.76414 10.9411C7.67207 10.8918 7.59774 10.8149 7.55159 10.7212C7.50544 10.6275 7.48978 10.5217 7.50682 10.4187C7.52385 10.3157 7.57272 10.2205 7.64657 10.1467C7.72042 10.0728 7.81553 10.024 7.91857 10.0069C8.02161 9.98991 8.12739 10.0056 8.22108 10.0517C8.31476 10.0979 8.39164 10.1722 8.44093 10.2643C8.49022 10.3563 8.50944 10.4615 8.4959 10.5651C8.48161 10.6744 8.43161 10.7759 8.35368 10.8538C8.27574 10.9317 8.17424 10.9817 8.06496 10.996Z" fill="white"/>
<path d="M8.06496 8.49602C7.96141 8.50957 7.85621 8.49034 7.76414 8.44105C7.67207 8.39176 7.59774 8.31488 7.55159 8.2212C7.50544 8.12751 7.48978 8.02173 7.50682 7.91869C7.52385 7.81565 7.57272 7.72054 7.64657 7.64669C7.72042 7.57284 7.81553 7.52397 7.91857 7.50694C8.02161 7.48991 8.12739 7.50556 8.22108 7.55171C8.31476 7.59786 8.39164 7.67219 8.44093 7.76426C8.49022 7.85634 8.50944 7.96153 8.4959 8.06508C8.48161 8.17437 8.43161 8.27587 8.35368 8.3538C8.27574 8.43173 8.17424 8.48173 8.06496 8.49602Z" fill="white"/>
<path d="M8.35422 5.85403C8.54887 5.65938 8.54808 5.34299 8.35245 5.14737C8.15682 4.95174 7.84044 4.95095 7.64578 5.1456C7.45113 5.34025 7.45192 5.65663 7.64755 5.85226C7.84318 6.04789 8.15956 6.04868 8.35422 5.85403Z" fill="white"/>
<path d="M8.06496 3.49602C7.96141 3.50957 7.85621 3.49034 7.76414 3.44105C7.67207 3.39177 7.59774 3.31488 7.55159 3.2212C7.50544 3.12751 7.48978 3.02173 7.50682 2.91869C7.52385 2.81566 7.57272 2.72054 7.64657 2.64669C7.72042 2.57284 7.81553 2.52397 7.91857 2.50694C8.02161 2.48991 8.12739 2.50556 8.22108 2.55171C8.31476 2.59786 8.39164 2.67219 8.44093 2.76426C8.49022 2.85634 8.50944 2.96153 8.4959 3.06509C8.48161 3.17437 8.43161 3.27587 8.35368 3.3538C8.27574 3.43173 8.17424 3.48173 8.06496 3.49602Z" fill="white"/>
<path d="M12.5 12.5C12.4011 12.5 12.3044 12.5293 12.2222 12.5843C12.14 12.6392 12.0759 12.7173 12.0381 12.8087C12.0002 12.9 11.9903 13.0006 12.0096 13.0975C12.0289 13.1945 12.0765 13.2836 12.1464 13.3536C12.2164 13.4235 12.3055 13.4711 12.4025 13.4904C12.4994 13.5097 12.6 13.4998 12.6913 13.4619C12.7827 13.4241 12.8608 13.36 12.9157 13.2778C12.9707 13.1956 13 13.0989 13 13C13 12.8674 12.9473 12.7402 12.8536 12.6464C12.7598 12.5527 12.6326 12.5 12.5 12.5Z" fill="white"/>
<path d="M12.5 10C12.4011 10 12.3044 10.0293 12.2222 10.0843C12.14 10.1392 12.0759 10.2173 12.0381 10.3087C12.0002 10.4 11.9903 10.5006 12.0096 10.5975C12.0289 10.6945 12.0765 10.7836 12.1464 10.8536C12.2164 10.9235 12.3055 10.9711 12.4025 10.9904C12.4994 11.0097 12.6 10.9998 12.6913 10.9619C12.7827 10.9241 12.8608 10.86 12.9157 10.7778C12.9707 10.6956 13 10.5989 13 10.5C13 10.3674 12.9473 10.2402 12.8536 10.1464C12.7598 10.0527 12.6326 10 12.5 10Z" fill="white"/>
<path d="M12.5 7.5C12.4011 7.5 12.3044 7.52932 12.2222 7.58427C12.14 7.63921 12.0759 7.7173 12.0381 7.80866C12.0002 7.90002 11.9903 8.00056 12.0096 8.09755C12.0289 8.19454 12.0765 8.28363 12.1464 8.35355C12.2164 8.42348 12.3055 8.4711 12.4025 8.49039C12.4994 8.50969 12.6 8.49978 12.6913 8.46194C12.7827 8.4241 12.8608 8.36001 12.9157 8.27779C12.9707 8.19556 13 8.09889 13 8C13 7.86739 12.9473 7.74021 12.8536 7.64645C12.7598 7.55268 12.6326 7.5 12.5 7.5Z" fill="white"/>
<path d="M10.5 12.5C10.4011 12.5 10.3044 12.5293 10.2222 12.5843C10.14 12.6392 10.0759 12.7173 10.0381 12.8087C10.0002 12.9 9.99031 13.0006 10.0096 13.0975C10.0289 13.1945 10.0765 13.2836 10.1464 13.3536C10.2164 13.4235 10.3055 13.4711 10.4025 13.4904C10.4994 13.5097 10.6 13.4998 10.6913 13.4619C10.7827 13.4241 10.8608 13.36 10.9157 13.2778C10.9707 13.1956 11 13.0989 11 13C11 12.8674 10.9473 12.7402 10.8536 12.6464C10.7598 12.5527 10.6326 12.5 10.5 12.5Z" fill="white"/>
<path d="M10.5 10C10.4011 10 10.3044 10.0293 10.2222 10.0843C10.14 10.1392 10.0759 10.2173 10.0381 10.3087C10.0002 10.4 9.99031 10.5006 10.0096 10.5975C10.0289 10.6945 10.0765 10.7836 10.1464 10.8536C10.2164 10.9235 10.3055 10.9711 10.4025 10.9904C10.4994 11.0097 10.6 10.9998 10.6913 10.9619C10.7827 10.9241 10.8608 10.86 10.9157 10.7778C10.9707 10.6956 11 10.5989 11 10.5C11 10.3674 10.9473 10.2402 10.8536 10.1464C10.7598 10.0527 10.6326 10 10.5 10Z" fill="white"/>
<path d="M10.5 7.5C10.4011 7.5 10.3044 7.52932 10.2222 7.58427C10.14 7.63921 10.0759 7.7173 10.0381 7.80866C10.0002 7.90002 9.99031 8.00056 10.0096 8.09755C10.0289 8.19454 10.0765 8.28363 10.1464 8.35355C10.2164 8.42348 10.3055 8.4711 10.4025 8.49039C10.4994 8.50969 10.6 8.49978 10.6913 8.46194C10.7827 8.4241 10.8608 8.36001 10.9157 8.27779C10.9707 8.19556 11 8.09889 11 8C11 7.86739 10.9473 7.74021 10.8536 7.64645C10.7598 7.55268 10.6326 7.5 10.5 7.5Z" fill="white"/>
</g>
<defs>
<clipPath id="clip0_54_3495">
<rect width="16" height="16" fill="white"/>
</clipPath>
</defs>
</svg>
