<svg width="16" height="16" viewBox="0 0 16 16" fill="none" xmlns="http://www.w3.org/2000/svg">
<path d="M5.625 6.25C5.625 5.90482 5.34518 5.625 5 5.625C4.65482 5.625 4.375 5.90482 4.375 6.25C4.375 7.0788 4.70424 7.87366 5.29029 8.45971C5.87634 9.04576 6.6712 9.375 7.5 9.375C8.3288 9.375 9.12366 9.04576 9.70971 8.45971C10.2958 7.87366 10.625 7.0788 10.625 6.25C10.625 5.90482 10.3452 5.625 10 5.625C9.65482 5.625 9.375 5.90482 9.375 6.25C9.375 6.74728 9.17746 7.2242 8.82583 7.57583C8.4742 7.92746 7.99728 8.125 7.5 8.125C7.00272 8.125 6.5258 7.92746 6.17417 7.57583C5.82254 7.2242 5.625 6.74728 5.625 6.25Z" fill="white"/>
<path fill-rule="evenodd" clip-rule="evenodd" d="M3.25 0.875C3.36803 0.717621 3.55328 0.625 3.75 0.625H11.25C11.4467 0.625 11.632 0.717621 11.75 0.875L13.6212 3.36992C13.702 3.47524 13.75 3.60701 13.75 3.75V12.5C13.75 12.9973 13.5525 13.4742 13.2008 13.8258C12.8492 14.1775 12.3723 14.375 11.875 14.375H3.125C2.62772 14.375 2.15081 14.1775 1.79917 13.8258C1.44754 13.4742 1.25 12.9973 1.25 12.5V3.75C1.25 3.60702 1.29801 3.47526 1.37879 3.36995L3.25 0.875ZM10.9375 1.875L11.875 3.125H3.125L4.0625 1.875H10.9375ZM2.5 12.5V4.375H12.5V12.5C12.5 12.6658 12.4342 12.8247 12.3169 12.9419C12.1997 13.0592 12.0408 13.125 11.875 13.125H3.125C2.95924 13.125 2.80027 13.0592 2.68306 12.9419C2.56585 12.8247 2.5 12.6658 2.5 12.5Z" fill="white"/>
</svg>
