<svg width="14" height="18" viewBox="0 0 14 18" fill="none" xmlns="http://www.w3.org/2000/svg">
<g clip-path="url(#clip0_54_3519)">
<path d="M8.33329 2.41675H2.99996C2.64634 2.41675 2.3072 2.566 2.05715 2.83168C1.8071 3.09736 1.66663 3.45769 1.66663 3.83341V15.1667C1.66663 15.5425 1.8071 15.9028 2.05715 16.1685C2.3072 16.4342 2.64634 16.5834 2.99996 16.5834H11C11.3536 16.5834 11.6927 16.4342 11.9428 16.1685C12.1928 15.9028 12.3333 15.5425 12.3333 15.1667V6.66675L8.33329 2.41675Z" stroke="white" strokeLinecap="round" strokeLinejoin="round"/>
<path d="M8.33337 2.41675V6.66675H12.3334" stroke="white" strokeLinecap="round" strokeLinejoin="round"/>
<path d="M9.66671 10.2083H4.33337" stroke="white" strokeLinecap="round" strokeLinejoin="round"/>
<path d="M9.66671 13.0417H4.33337" stroke="white" strokeLinecap="round" strokeLinejoin="round"/>
<path d="M5.66671 7.375H5.00004H4.33337" stroke="white" strokeLinecap="round" strokeLinejoin="round"/>
</g>
<defs>
<clipPath id="clip0_54_3519">
<rect width="14" height="17" fill="white" transform="translate(0 0.5)"/>
</clipPath>
</defs>
</svg>
