<svg width="34" height="34" viewBox="0 0 34 34" fill="none" xmlns="http://www.w3.org/2000/svg">
<path d="M17.3874 11.0365C16.6891 10.9167 15.9709 11.048 15.3601 11.4069C14.7493 11.7659 14.2853 12.3295 14.0502 12.9978C13.7753 13.7793 12.9189 14.1899 12.1374 13.915C11.3559 13.6401 10.9453 12.7838 11.2202 12.0023C11.6904 10.6656 12.6185 9.53848 13.8401 8.82053C15.0617 8.10259 16.498 7.84014 17.8945 8.07969C19.2911 8.31924 20.5578 9.04532 21.4703 10.1293C22.3827 11.2131 22.8821 12.5848 22.8802 14.0014C22.8795 16.2969 21.1776 17.8129 19.9622 18.6231C19.3088 19.0587 18.666 19.3791 18.1925 19.5895C17.9536 19.6957 17.7525 19.7762 17.6075 19.8315C17.5349 19.8591 17.4761 19.8805 17.4332 19.8958L17.3811 19.914L17.3645 19.9197L17.3587 19.9217L17.3564 19.9224C17.3564 19.9224 17.3545 19.9231 16.8802 18.5L17.3545 19.9231C16.5686 20.185 15.7191 19.7603 15.4571 18.9744C15.1954 18.189 15.6194 17.3401 16.4043 17.0775L16.4282 17.0691C16.4513 17.0609 16.4891 17.0472 16.5395 17.028C16.6407 16.9895 16.7911 16.9294 16.9741 16.8481C17.3443 16.6835 17.8266 16.4413 18.2981 16.127C19.3325 15.4374 19.8802 14.7037 19.8802 14L19.8802 13.9978C19.8812 13.2893 19.6315 12.6033 19.1753 12.0613C18.719 11.5193 18.0856 11.1563 17.3874 11.0365Z" fill="black"/>
<path d="M17 23C16.1716 23 15.5 23.6716 15.5 24.5C15.5 25.3284 16.1716 26 17 26H17.015C17.8434 26 18.515 25.3284 18.515 24.5C18.515 23.6716 17.8434 23 17.015 23H17Z" fill="black"/>
<path fillRule="evenodd" clipRule="evenodd" d="M0.5 17C0.5 7.8873 7.8873 0.5 17 0.5C26.1127 0.5 33.5 7.8873 33.5 17C33.5 26.1127 26.1127 33.5 17 33.5C7.8873 33.5 0.5 26.1127 0.5 17ZM17 3.5C9.54416 3.5 3.5 9.54416 3.5 17C3.5 24.4558 9.54416 30.5 17 30.5C24.4558 30.5 30.5 24.4558 30.5 17C30.5 9.54416 24.4558 3.5 17 3.5Z" fill="black"/>
</svg>
