<svg width="175" height="69" viewBox="0 0 175 69" fill="none" xmlns="http://www.w3.org/2000/svg">
<path d="M31.8518 -0.00800323C34.5824 -0.00800323 37.0038 0.290663 39.1158 0.887997C41.2491 1.464 42.9664 2.08267 44.2678 2.744C45.5904 3.40533 46.4011 3.85333 46.6998 4.088L40.8438 14.008C40.5024 13.752 39.9051 13.4 39.0518 12.952C38.2198 12.4827 37.2811 12.0667 36.2358 11.704C35.1904 11.3413 34.1878 11.16 33.2278 11.16C32.0971 11.16 31.1584 11.32 30.4118 11.64C29.6651 11.9387 29.2917 12.4613 29.2917 13.208C29.2917 13.72 29.4944 14.1893 29.8998 14.616C30.3051 15.0427 30.9878 15.48 31.9478 15.928C32.9291 16.376 34.2624 16.888 35.9478 17.464C37.5904 17.9973 39.0944 18.6587 40.4598 19.448C41.8251 20.2373 42.9984 21.176 43.9798 22.264C44.9824 23.352 45.7611 24.6 46.3158 26.008C46.8704 27.416 47.1478 29.0053 47.1478 30.776C47.1478 33.1227 46.6571 35.128 45.6758 36.792C44.7158 38.4347 43.4251 39.768 41.8038 40.792C40.1824 41.816 38.3691 42.5627 36.3638 43.032C34.3798 43.5227 32.3638 43.768 30.3158 43.768C27.1798 43.768 24.3851 43.4267 21.9318 42.744C19.4998 42.0613 17.5264 41.3253 16.0118 40.536C14.5184 39.7253 13.6011 39.1493 13.2598 38.808L19.3078 28.472C19.5424 28.664 20.0438 28.9733 20.8118 29.4C21.6011 29.8267 22.5398 30.2747 23.6278 30.744C24.7371 31.2133 25.8784 31.6187 27.0518 31.96C28.2251 32.28 29.3131 32.44 30.3158 32.44C31.6598 32.44 32.6518 32.248 33.2918 31.864C33.9318 31.48 34.2518 30.9253 34.2518 30.2C34.2518 29.688 34.0491 29.208 33.6438 28.76C33.2598 28.312 32.5558 27.8427 31.5318 27.352C30.5291 26.84 29.0998 26.2533 27.2438 25.592C25.4518 24.9307 23.7451 24.0667 22.1238 23C20.5024 21.9333 19.1798 20.5467 18.1558 18.84C17.1318 17.1333 16.6198 15 16.6198 12.44C16.6198 9.83733 17.3451 7.608 18.7958 5.752C20.2464 3.896 22.1344 2.47733 24.4598 1.496C26.7851 0.493331 29.2491 -0.00800323 31.8518 -0.00800323ZM75.7273 31.48C77.2206 31.48 78.6606 31.2453 80.0473 30.776C81.4553 30.3067 82.5433 29.8373 83.3113 29.368L88.5913 39.864C87.5673 40.7173 85.8286 41.5813 83.3753 42.456C80.9219 43.3307 78.0313 43.768 74.7033 43.768C71.5886 43.768 68.6446 43.2347 65.8713 42.168C63.0979 41.08 60.6339 39.5547 58.4792 37.592C56.3459 35.6293 54.6713 33.3253 53.4553 30.68C52.2393 28.0133 51.6313 25.1013 51.6313 21.944C51.6313 18.7867 52.2393 15.8747 53.4553 13.208C54.6713 10.52 56.3459 8.19467 58.4792 6.232C60.6126 4.248 63.0659 2.712 65.8393 1.624C68.6339 0.535997 71.5886 -0.00800323 74.7033 -0.00800323C78.0313 -0.00800323 80.9219 0.42933 83.3753 1.304C85.8286 2.17866 87.5673 3.04266 88.5913 3.896L83.3113 14.392C82.5433 13.9227 81.4553 13.4533 80.0473 12.984C78.6606 12.5147 77.2206 12.28 75.7273 12.28C73.7006 12.28 72.0046 12.568 70.6393 13.144C69.2739 13.72 68.1753 14.488 67.3433 15.448C66.5326 16.3867 65.9459 17.4213 65.5833 18.552C65.2419 19.6613 65.0713 20.76 65.0713 21.848C65.0713 22.9573 65.2419 24.0773 65.5833 25.208C65.9459 26.3387 66.5326 27.384 67.3433 28.344C68.1753 29.2827 69.2739 30.04 70.6393 30.616C72.0046 31.192 73.7006 31.48 75.7273 31.48ZM93.5718 0.759998H112.516C115.076 0.759998 117.337 1.304 119.3 2.392C121.262 3.45866 122.798 4.99466 123.908 7C125.017 8.984 125.572 11.3413 125.572 14.072C125.572 16.7813 125.124 18.9787 124.228 20.664C123.353 22.328 122.297 23.576 121.06 24.408C119.822 25.24 118.681 25.7733 117.636 26.008L127.748 43H113.86L105.156 26.968H105.988V43H93.5718V0.759998ZM105.988 18.584H108.036C109.166 18.584 110.244 18.3173 111.268 17.784C112.313 17.2507 112.836 16.152 112.836 14.488C112.836 12.824 112.334 11.7253 111.332 11.192C110.329 10.6587 109.262 10.392 108.132 10.392H105.988V18.584ZM139.156 11.512H130.036V0.759998H160.66V11.512H151.54V43H139.156V11.512ZM1.30588 56.776H5.06588C5.23655 56.776 5.37521 56.8347 5.48188 56.952C5.59921 57.0693 5.65788 57.208 5.65788 57.368C5.65788 57.5387 5.59921 57.6827 5.48188 57.8C5.37521 57.9067 5.23655 57.96 5.06588 57.96H1.30588C1.14588 57.96 1.00721 57.9013 0.889879 57.784C0.772546 57.6667 0.713879 57.5227 0.713879 57.352C0.713879 57.192 0.772546 57.0587 0.889879 56.952C1.00721 56.8347 1.14588 56.776 1.30588 56.776ZM2.98588 54.6C3.16721 54.6 3.31655 54.664 3.43388 54.792C3.55121 54.9093 3.60988 55.0587 3.60988 55.24V62.968C3.60988 63.224 3.64721 63.416 3.72188 63.544C3.79655 63.672 3.89255 63.7627 4.00988 63.816C4.13788 63.8587 4.26055 63.88 4.37788 63.88C4.48455 63.88 4.57521 63.864 4.64988 63.832C4.73521 63.7893 4.83121 63.768 4.93788 63.768C5.04455 63.768 5.14055 63.8213 5.22588 63.928C5.32188 64.024 5.36988 64.152 5.36988 64.312C5.36988 64.504 5.25788 64.6693 5.03388 64.808C4.80988 64.936 4.55921 65 4.28188 65C4.13255 65 3.94588 64.9893 3.72188 64.968C3.50855 64.9467 3.29521 64.8773 3.08188 64.76C2.86855 64.6427 2.68721 64.4507 2.53788 64.184C2.39921 63.9067 2.32988 63.5227 2.32988 63.032V55.24C2.32988 55.0587 2.39388 54.9093 2.52188 54.792C2.64988 54.664 2.80455 54.6 2.98588 54.6ZM17.2643 65.16C16.4109 65.16 15.6643 64.9787 15.0243 64.616C14.3843 64.2533 13.8829 63.7573 13.5203 63.128C13.1683 62.488 12.9923 61.752 12.9923 60.92C12.9923 59.992 13.1736 59.2027 13.5363 58.552C13.9096 57.8907 14.3896 57.3893 14.9763 57.048C15.5736 56.696 16.2029 56.52 16.8643 56.52C17.3549 56.52 17.8296 56.6107 18.2883 56.792C18.7469 56.9733 19.1523 57.24 19.5043 57.592C19.8563 57.9333 20.1389 58.3493 20.3523 58.84C20.5656 59.32 20.6776 59.8587 20.6883 60.456C20.6883 60.6267 20.6243 60.7707 20.4963 60.888C20.3683 61.0053 20.2189 61.064 20.0483 61.064H13.7283L13.4403 59.96H19.6003L19.3443 60.184V59.832C19.3016 59.3947 19.1523 59.0213 18.8963 58.712C18.6509 58.392 18.3469 58.1467 17.9843 57.976C17.6323 57.8053 17.2589 57.72 16.8643 57.72C16.5443 57.72 16.2243 57.7787 15.9043 57.896C15.5949 58.0027 15.3123 58.184 15.0563 58.44C14.8109 58.6853 14.6083 59.0053 14.4483 59.4C14.2989 59.7947 14.2243 60.2693 14.2243 60.824C14.2243 61.4427 14.3469 61.9867 14.5923 62.456C14.8483 62.9253 15.2003 63.2987 15.6483 63.576C16.0963 63.8427 16.6189 63.976 17.2163 63.976C17.5896 63.976 17.9149 63.928 18.1923 63.832C18.4696 63.736 18.7096 63.6187 18.9123 63.48C19.1149 63.3307 19.2856 63.1813 19.4243 63.032C19.5629 62.936 19.6963 62.888 19.8243 62.888C19.9843 62.888 20.1123 62.9413 20.2083 63.048C20.3149 63.1547 20.3683 63.2827 20.3683 63.432C20.3683 63.6133 20.2829 63.7733 20.1123 63.912C19.8136 64.2427 19.4083 64.536 18.8963 64.792C18.3843 65.0373 17.8403 65.16 17.2643 65.16ZM32.3721 56.52C32.9161 56.52 33.4068 56.5787 33.8441 56.696C34.2815 56.8133 34.6281 56.9733 34.8841 57.176C35.1401 57.3787 35.2681 57.608 35.2681 57.864C35.2681 58.0027 35.2201 58.136 35.1241 58.264C35.0281 58.392 34.9001 58.456 34.7401 58.456C34.5908 58.456 34.4681 58.4293 34.3721 58.376C34.2868 58.3227 34.2015 58.2533 34.1161 58.168C34.0415 58.0827 33.9348 58.008 33.7961 57.944C33.6681 57.8693 33.4815 57.8107 33.2361 57.768C32.9908 57.7253 32.7455 57.704 32.5001 57.704C31.9135 57.704 31.3961 57.8427 30.9481 58.12C30.5108 58.3973 30.1641 58.7707 29.9081 59.24C29.6521 59.7093 29.5241 60.2427 29.5241 60.84C29.5241 61.4373 29.6468 61.9707 29.8921 62.44C30.1375 62.9093 30.4788 63.2827 30.9161 63.56C31.3535 63.8373 31.8601 63.976 32.4361 63.976C32.8095 63.976 33.1081 63.944 33.3321 63.88C33.5561 63.816 33.7428 63.7413 33.8921 63.656C34.0841 63.5493 34.2281 63.4427 34.3241 63.336C34.4308 63.2293 34.5695 63.176 34.7401 63.176C34.9215 63.176 35.0601 63.2347 35.1561 63.352C35.2628 63.4693 35.3161 63.6133 35.3161 63.784C35.3161 63.976 35.1828 64.1787 34.9161 64.392C34.6495 64.6053 34.2868 64.7867 33.8281 64.936C33.3801 65.0853 32.8681 65.16 32.2921 65.16C31.4815 65.16 30.7721 64.9733 30.1641 64.6C29.5561 64.216 29.0815 63.6987 28.7401 63.048C28.4095 62.3867 28.2441 61.6507 28.2441 60.84C28.2441 60.0293 28.4148 59.2987 28.7561 58.648C29.1081 57.9973 29.5935 57.48 30.2121 57.096C30.8308 56.712 31.5508 56.52 32.3721 56.52ZM47.069 56.6C47.773 56.6 48.3277 56.7547 48.733 57.064C49.149 57.3627 49.4423 57.768 49.613 58.28C49.7943 58.7813 49.885 59.3413 49.885 59.96V64.344C49.885 64.5253 49.821 64.68 49.693 64.808C49.5757 64.936 49.4263 65 49.245 65C49.0637 65 48.909 64.936 48.781 64.808C48.6637 64.68 48.605 64.5253 48.605 64.344V59.96C48.605 59.5547 48.5463 59.192 48.429 58.872C48.3117 58.5413 48.1143 58.28 47.837 58.088C47.5703 57.8853 47.2023 57.784 46.733 57.784C46.2957 57.784 45.8957 57.8853 45.533 58.088C45.1703 58.28 44.8823 58.5413 44.669 58.872C44.4557 59.192 44.349 59.5547 44.349 59.96V64.344C44.349 64.5253 44.285 64.68 44.157 64.808C44.0397 64.936 43.8903 65 43.709 65C43.5277 65 43.373 64.936 43.245 64.808C43.1277 64.68 43.069 64.5253 43.069 64.344V53.8C43.069 53.6187 43.1277 53.4693 43.245 53.352C43.373 53.224 43.5277 53.16 43.709 53.16C43.901 53.16 44.0557 53.224 44.173 53.352C44.2903 53.4693 44.349 53.6187 44.349 53.8V58.584L44.029 58.936C44.0823 58.6587 44.1997 58.3813 44.381 58.104C44.5623 57.816 44.7917 57.56 45.069 57.336C45.3463 57.112 45.6557 56.936 45.997 56.808C46.3383 56.6693 46.6957 56.6 47.069 56.6ZM72.2788 53.192C72.4601 53.192 72.6468 53.2133 72.8388 53.256C73.0414 53.2987 73.2121 53.3733 73.3508 53.48C73.5001 53.5867 73.5748 53.7307 73.5748 53.912C73.5748 54.0827 73.5214 54.2267 73.4148 54.344C73.3081 54.4507 73.1801 54.504 73.0308 54.504C72.9348 54.504 72.8014 54.4773 72.6308 54.424C72.4601 54.36 72.2841 54.328 72.1028 54.328C71.8574 54.328 71.6548 54.3813 71.4948 54.488C71.3454 54.5947 71.2334 54.7387 71.1588 54.92C71.0948 55.0907 71.0628 55.2827 71.0628 55.496V64.344C71.0628 64.5253 70.9988 64.68 70.8708 64.808C70.7534 64.936 70.6041 65 70.4228 65C70.2308 65 70.0761 64.936 69.9588 64.808C69.8414 64.68 69.7828 64.5253 69.7828 64.344V55.512C69.7828 54.7973 70.0014 54.232 70.4388 53.816C70.8868 53.4 71.5001 53.192 72.2788 53.192ZM72.7268 56.856C72.8974 56.856 73.0414 56.9147 73.1588 57.032C73.2761 57.1387 73.3348 57.2773 73.3348 57.448C73.3348 57.6187 73.2761 57.7627 73.1588 57.88C73.0414 57.9867 72.8974 58.04 72.7268 58.04H68.7108C68.5401 58.04 68.3961 57.9813 68.2788 57.864C68.1614 57.7467 68.1028 57.608 68.1028 57.448C68.1028 57.2667 68.1614 57.1227 68.2788 57.016C68.3961 56.9093 68.5401 56.856 68.7108 56.856H72.7268ZM88.3681 60.84C88.3681 61.672 88.1815 62.4133 87.8081 63.064C87.4455 63.7147 86.9495 64.2267 86.3201 64.6C85.7015 64.9733 85.0028 65.16 84.2241 65.16C83.4455 65.16 82.7415 64.9733 82.1121 64.6C81.4828 64.2267 80.9815 63.7147 80.6081 63.064C80.2455 62.4133 80.0641 61.672 80.0641 60.84C80.0641 60.008 80.2455 59.2667 80.6081 58.616C80.9815 57.9653 81.4828 57.4533 82.1121 57.08C82.7415 56.7067 83.4455 56.52 84.2241 56.52C85.0028 56.52 85.7015 56.7067 86.3201 57.08C86.9495 57.4533 87.4455 57.9653 87.8081 58.616C88.1815 59.2667 88.3681 60.008 88.3681 60.84ZM87.0881 60.84C87.0881 60.2213 86.9601 59.6773 86.7041 59.208C86.4588 58.7387 86.1175 58.3707 85.6801 58.104C85.2535 57.8373 84.7681 57.704 84.2241 57.704C83.6801 57.704 83.1895 57.8373 82.7521 58.104C82.3255 58.3707 81.9841 58.7387 81.7281 59.208C81.4721 59.6773 81.3441 60.2213 81.3441 60.84C81.3441 61.448 81.4721 61.9867 81.7281 62.456C81.9841 62.9253 82.3255 63.2987 82.7521 63.576C83.1895 63.8427 83.6801 63.976 84.2241 63.976C84.7681 63.976 85.2535 63.8427 85.6801 63.576C86.1175 63.2987 86.4588 62.9253 86.7041 62.456C86.9601 61.9867 87.0881 61.448 87.0881 60.84ZM97.0134 65C96.832 65 96.6774 64.936 96.5494 64.808C96.432 64.68 96.3734 64.5253 96.3734 64.344V57.368C96.3734 57.1867 96.432 57.0373 96.5494 56.92C96.6774 56.792 96.832 56.728 97.0134 56.728C97.2054 56.728 97.36 56.792 97.4774 56.92C97.5947 57.0373 97.6534 57.1867 97.6534 57.368V59.48L97.4614 59.144C97.5254 58.8133 97.6374 58.4933 97.7974 58.184C97.968 57.864 98.1814 57.5813 98.4374 57.336C98.6934 57.08 98.9867 56.8827 99.3174 56.744C99.648 56.5947 100.011 56.52 100.405 56.52C100.64 56.52 100.853 56.5787 101.045 56.696C101.248 56.8027 101.349 56.9573 101.349 57.16C101.349 57.384 101.291 57.5493 101.173 57.656C101.056 57.7627 100.923 57.816 100.773 57.816C100.635 57.816 100.501 57.7893 100.373 57.736C100.245 57.672 100.085 57.64 99.8934 57.64C99.6267 57.64 99.36 57.7147 99.0934 57.864C98.8374 58.0027 98.5974 58.2053 98.3734 58.472C98.16 58.7387 97.984 59.0427 97.8454 59.384C97.7174 59.7147 97.6534 60.072 97.6534 60.456V64.344C97.6534 64.5253 97.5894 64.68 97.4614 64.808C97.344 64.936 97.1947 65 97.0134 65ZM122.834 56.52C123.292 56.52 123.719 56.6 124.114 56.76C124.508 56.9093 124.85 57.1067 125.138 57.352C125.436 57.5973 125.666 57.8533 125.826 58.12C125.996 58.3867 126.082 58.6373 126.082 58.872L125.778 58.68V57.288C125.778 57.1067 125.836 56.9573 125.954 56.84C126.071 56.712 126.226 56.648 126.418 56.648C126.599 56.648 126.748 56.712 126.866 56.84C126.994 56.9573 127.058 57.1067 127.058 57.288V64.296C127.058 65.1707 126.871 65.896 126.498 66.472C126.135 67.048 125.644 67.48 125.026 67.768C124.407 68.056 123.714 68.2 122.946 68.2C122.626 68.2 122.274 68.1573 121.89 68.072C121.506 67.9867 121.164 67.88 120.866 67.752C120.567 67.6347 120.375 67.512 120.29 67.384C120.13 67.2773 120.028 67.1547 119.986 67.016C119.954 66.888 119.98 66.7653 120.066 66.648C120.162 66.4987 120.284 66.424 120.434 66.424C120.594 66.424 120.791 66.472 121.026 66.568C121.122 66.6 121.271 66.6533 121.474 66.728C121.687 66.8027 121.922 66.8667 122.178 66.92C122.444 66.984 122.706 67.016 122.962 67.016C123.868 67.016 124.562 66.776 125.042 66.296C125.532 65.8267 125.778 65.2027 125.778 64.424V62.936L125.954 63.016C125.89 63.3147 125.756 63.592 125.554 63.848C125.362 64.104 125.122 64.3333 124.834 64.536C124.556 64.728 124.247 64.8827 123.906 65C123.564 65.1067 123.218 65.16 122.866 65.16C122.119 65.16 121.447 64.9733 120.85 64.6C120.252 64.2267 119.778 63.7147 119.426 63.064C119.084 62.4133 118.914 61.672 118.914 60.84C118.914 59.9973 119.084 59.2507 119.426 58.6C119.778 57.9493 120.247 57.4427 120.834 57.08C121.431 56.7067 122.098 56.52 122.834 56.52ZM122.994 57.704C122.45 57.704 121.959 57.8427 121.522 58.12C121.095 58.3867 120.759 58.7547 120.514 59.224C120.279 59.6933 120.162 60.232 120.162 60.84C120.162 61.4267 120.279 61.96 120.514 62.44C120.759 62.9093 121.095 63.2827 121.522 63.56C121.959 63.8373 122.45 63.976 122.994 63.976C123.548 63.976 124.039 63.8427 124.466 63.576C124.892 63.2987 125.228 62.9253 125.474 62.456C125.719 61.9867 125.842 61.448 125.842 60.84C125.842 60.2213 125.719 59.6773 125.474 59.208C125.228 58.7387 124.892 58.3707 124.466 58.104C124.039 57.8373 123.548 57.704 122.994 57.704ZM143.048 60.84C143.048 61.672 142.861 62.4133 142.488 63.064C142.125 63.7147 141.629 64.2267 141 64.6C140.381 64.9733 139.682 65.16 138.904 65.16C138.125 65.16 137.421 64.9733 136.792 64.6C136.162 64.2267 135.661 63.7147 135.288 63.064C134.925 62.4133 134.744 61.672 134.744 60.84C134.744 60.008 134.925 59.2667 135.288 58.616C135.661 57.9653 136.162 57.4533 136.792 57.08C137.421 56.7067 138.125 56.52 138.904 56.52C139.682 56.52 140.381 56.7067 141 57.08C141.629 57.4533 142.125 57.9653 142.488 58.616C142.861 59.2667 143.048 60.008 143.048 60.84ZM141.768 60.84C141.768 60.2213 141.64 59.6773 141.384 59.208C141.138 58.7387 140.797 58.3707 140.36 58.104C139.933 57.8373 139.448 57.704 138.904 57.704C138.36 57.704 137.869 57.8373 137.432 58.104C137.005 58.3707 136.664 58.7387 136.408 59.208C136.152 59.6773 136.024 60.2213 136.024 60.84C136.024 61.448 136.152 61.9867 136.408 62.456C136.664 62.9253 137.005 63.2987 137.432 63.576C137.869 63.8427 138.36 63.976 138.904 63.976C139.448 63.976 139.933 63.8427 140.36 63.576C140.797 63.2987 141.138 62.9253 141.384 62.456C141.64 61.9867 141.768 61.448 141.768 60.84ZM158.909 60.84C158.909 61.672 158.722 62.4133 158.349 63.064C157.986 63.7147 157.49 64.2267 156.861 64.6C156.242 64.9733 155.543 65.16 154.765 65.16C153.986 65.16 153.282 64.9733 152.653 64.6C152.023 64.2267 151.522 63.7147 151.149 63.064C150.786 62.4133 150.605 61.672 150.605 60.84C150.605 60.008 150.786 59.2667 151.149 58.616C151.522 57.9653 152.023 57.4533 152.653 57.08C153.282 56.7067 153.986 56.52 154.765 56.52C155.543 56.52 156.242 56.7067 156.861 57.08C157.49 57.4533 157.986 57.9653 158.349 58.616C158.722 59.2667 158.909 60.008 158.909 60.84ZM157.629 60.84C157.629 60.2213 157.501 59.6773 157.245 59.208C156.999 58.7387 156.658 58.3707 156.221 58.104C155.794 57.8373 155.309 57.704 154.765 57.704C154.221 57.704 153.73 57.8373 153.293 58.104C152.866 58.3707 152.525 58.7387 152.269 59.208C152.013 59.6773 151.885 60.2213 151.885 60.84C151.885 61.448 152.013 61.9867 152.269 62.456C152.525 62.9253 152.866 63.2987 153.293 63.576C153.73 63.8427 154.221 63.976 154.765 63.976C155.309 63.976 155.794 63.8427 156.221 63.576C156.658 63.2987 156.999 62.9253 157.245 62.456C157.501 61.9867 157.629 61.448 157.629 60.84ZM173.73 53.16C173.911 53.16 174.061 53.224 174.178 53.352C174.306 53.4693 174.37 53.6187 174.37 53.8V64.344C174.37 64.5253 174.306 64.68 174.178 64.808C174.061 64.936 173.911 65 173.73 65C173.538 65 173.383 64.936 173.266 64.808C173.149 64.68 173.09 64.5253 173.09 64.344V62.824L173.394 62.712C173.394 62.968 173.314 63.24 173.154 63.528C172.994 63.8053 172.775 64.0667 172.498 64.312C172.221 64.5573 171.89 64.76 171.506 64.92C171.133 65.08 170.727 65.16 170.29 65.16C169.575 65.16 168.925 64.9733 168.338 64.6C167.762 64.2267 167.303 63.7147 166.962 63.064C166.631 62.4133 166.466 61.672 166.466 60.84C166.466 59.9973 166.631 59.2507 166.962 58.6C167.303 57.9493 167.762 57.4427 168.338 57.08C168.914 56.7067 169.554 56.52 170.258 56.52C170.706 56.52 171.127 56.5947 171.522 56.744C171.917 56.8933 172.258 57.096 172.546 57.352C172.845 57.608 173.079 57.8907 173.25 58.2C173.421 58.5093 173.506 58.8187 173.506 59.128L173.09 59.032V53.8C173.09 53.6187 173.149 53.4693 173.266 53.352C173.383 53.224 173.538 53.16 173.73 53.16ZM170.434 63.976C170.967 63.976 171.437 63.8427 171.842 63.576C172.258 63.2987 172.578 62.9253 172.802 62.456C173.037 61.976 173.154 61.4373 173.154 60.84C173.154 60.232 173.037 59.6933 172.802 59.224C172.578 58.7547 172.258 58.3867 171.842 58.12C171.437 57.8427 170.967 57.704 170.434 57.704C169.911 57.704 169.442 57.8427 169.026 58.12C168.621 58.3867 168.301 58.7547 168.066 59.224C167.831 59.6933 167.714 60.232 167.714 60.84C167.714 61.4267 167.831 61.96 168.066 62.44C168.301 62.9093 168.621 63.2827 169.026 63.56C169.442 63.8373 169.911 63.976 170.434 63.976Z" fill="white"/>
</svg>
